Coordinates
version=1
nRows=26
nColumns=22
inDegrees=yes

Units are S.I. units (second, meters, Newtons, ...)
If the header above contains a line with 'inDegrees', this indicates whether rotational values are in degrees (yes) or radians (no).

endheader
time	pelvis_tilt	pelvis_list	pelvis_rotation	pelvis_tx	pelvis_ty	pelvis_tz	hip_flexion_r	hip_adduction_r	hip_rotation_r	knee_angle_r	ankle_angle_r	subtalar_angle_r	hip_flexion_l	hip_adduction_l	hip_rotation_l	knee_angle_l	ankle_angle_l	subtalar_angle_l	lumbar_extension	lumbar_bending	lumbar_rotation
      1.97000000	     -0.13848396	     -3.61979434	     -6.62460039	     -1.11990626	      1.02558545	     -0.16370037	      1.09366253	      5.18860789	     -3.07652976	    -11.54601369	     10.21468784	     -2.20676394	      1.61571147	     -3.04802449	     -6.96502699	    -11.18318979	     10.78774686	     -3.06623597	    -11.22235045	      3.15050052	      1.78730805
      1.98000000	     -0.13695788	     -3.60933882	     -6.61498833	     -1.11981917	      1.02557688	     -0.16324139	      1.09792107	      5.20417908	     -3.09787735	    -11.57318848	     10.23842449	     -2.22328743	      1.61663734	     -3.06522952	     -6.94185551	    -11.20142346	     10.78975690	     -3.03992767	    -11.25309999	      3.14062471	      1.83507880
      1.99000000	     -0.14016756	     -3.59679356	     -6.60466417	     -1.11972754	      1.02556126	     -0.16276759	      1.10679433	      5.21938599	     -3.12177098	    -11.59944760	     10.26274783	     -2.24359127	      1.61655019	     -3.08117302	     -6.93019033	    -11.20659007	     10.79482165	     -3.00587550	    -11.28179672	      3.13001370	      1.86729517
      2.00000000	     -0.15240131	     -3.57945010	     -6.59559146	     -1.11962703	      1.02554003	     -0.16228986	      1.11224723	      5.23125359	     -3.12552651	    -11.59840570	     10.26570496	     -2.24556626	      1.62122439	     -3.09312561	     -6.92999786	    -11.20059499	     10.79560578	     -3.00212946	    -11.30264166	      3.12120950	      1.87265007
      2.01000000	     -0.15601606	     -3.56496992	     -6.58135419	     -1.11954187	      1.02551676	     -0.16180346	      1.13642852	      5.24304444	     -3.18005026	    -11.65310776	     10.31836362	     -2.29644930	      1.62266348	     -3.10863389	     -6.91276330	    -11.20575933	     10.80369778	     -2.91221881	    -11.33736858	      3.11141212	      1.91625442
      2.02000000	     -0.16531987	     -3.54681712	     -6.56475939	     -1.11944818	      1.02549799	     -0.16129840	      1.14162981	      5.25615732	     -3.18537609	    -11.65888314	     10.32250861	     -2.30486363	      1.63519719	     -3.12232592	     -6.89673324	    -11.21975555	     10.79817539	     -2.89485511	    -11.36648406	      3.09703380	      1.94973179
      2.03000000	     -0.17959331	     -3.53124480	     -6.55623212	     -1.11934180	      1.02546578	     -0.16077301	      1.16387292	      5.27164592	     -3.21083191	    -11.68978009	     10.35551807	     -2.34834545	      1.64180472	     -3.13960872	     -6.89559419	    -11.21492166	     10.80388688	     -2.81550547	    -11.39153627	      3.09015742	      1.97781984
      2.04000000	     -0.18975634	     -3.51330225	     -6.54464938	     -1.11923286	      1.02544439	     -0.16022832	      1.16899805	      5.28661892	     -3.21391778	    -11.69612503	     10.36128006	     -2.35469692	      1.65211171	     -3.15559064	     -6.88267550	    -11.22617657	     10.79947310	     -2.80387206	    -11.42233242	      3.07841409	      2.01043855
      2.05000000	     -0.19971429	     -3.49729818	     -6.53582437	     -1.11911311	      1.02541945	     -0.15966372	      1.17599963	      5.30418496	     -3.22144635	    -11.70915142	     10.37875977	     -2.36575450	      1.65885645	     -3.17423489	     -6.87350438	    -11.23275183	     10.79795759	     -2.78760072	    -11.45365697	      3.07103171	      2.04557099
      2.06000000	     -0.20938514	     -3.47921698	     -6.52462722	     -1.11898203	      1.02539155	     -0.15908083	      1.18003702	      5.32099071	     -3.22825107	    -11.71835293	     10.40050861	     -2.37943512	      1.66736302	     -3.19187592	     -6.86532576	    -11.24324157	     10.79946373	     -2.76879258	    -11.48458012	      3.06180492	      2.07633660
      2.07000000	     -0.22367049	     -3.45737474	     -6.51255491	     -1.11882997	      1.02535710	     -0.15847484	      1.18277222	      5.33603028	     -3.23030976	    -11.71678269	     10.40450060	     -2.38120215	      1.67359235	     -3.20671956	     -6.86475203	    -11.23917656	     10.80037240	     -2.76630864	    -11.50689079	      3.05122999	      2.08238014
      2.08000000	     -0.22893142	     -3.43756255	     -6.49216563	     -1.11872312	      1.02532322	     -0.15786946	      1.18196139	      5.35251701	     -3.24460403	    -11.72366442	     10.44012887	     -2.40011879	      1.69634825	     -3.22465618	     -6.83591124	    -11.28195433	     10.80267028	     -2.74329127	    -11.55014813	      3.04146476	      2.12230861
      2.09000000	     -0.23707206	     -3.41614303	     -6.46487759	     -1.11860688	      1.02528012	     -0.15724523	      1.18364780	      5.36934768	     -3.26482818	    -11.73060288	     10.47749804	     -2.42509790	      1.72156081	     -3.24322036	     -6.81025454	    -11.32077628	     10.81324210	     -2.71250229	    -11.58896915	      3.03070840	      2.13572358
      2.10000000	     -0.24858320	     -3.39177767	     -6.43636981	     -1.11848755	      1.02523079	     -0.15660970	      1.18854808	      5.38412221	     -3.28763655	    -11.73595493	     10.50865575	     -2.45197321	      1.75141859	     -3.25943247	     -6.78224567	    -11.36079242	     10.82522200	     -2.67815082	    -11.62578785	      3.01886082	      2.13995695
      2.11000000	     -0.27352504	     -3.36627543	     -6.39179873	     -1.11835159	      1.02515091	     -0.15597262	      1.21294076	      5.39998545	     -3.34054184	    -11.75360900	     10.55892093	     -2.51947919	      1.80083343	     -3.27814627	     -6.74651019	    -11.40672483	     10.85834676	     -2.58752023	    -11.64400536	      3.00992660	      2.10805405
      2.12000000	     -0.28520743	     -3.33778231	     -6.37640079	     -1.11821811	      1.02510746	     -0.15528761	      1.21726392	      5.41285608	     -3.33757843	    -11.75856247	     10.56630318	     -2.52899597	      1.82722073	     -3.29146811	     -6.72293238	    -11.44503875	     10.85417498	     -2.57342326	    -11.68518676	      2.99138756	      2.13460580
      2.13000000	     -0.30661855	     -3.30874493	     -6.34625466	     -1.11807886	      1.02502966	     -0.15460263	      1.24374070	      5.42675709	     -3.35767613	    -11.78956381	     10.62985342	     -2.58051052	      1.87925968	     -3.30933999	     -6.70496892	    -11.50889470	     10.88322976	     -2.50516355	    -11.71605181	      2.97635750	      2.12593497
      2.14000000	     -0.31527425	     -3.27888993	     -6.32812513	     -1.11792498	      1.02498943	     -0.15389071	      1.25069064	      5.43936368	     -3.35049881	    -11.80860371	     10.63974977	     -2.59023032	      1.90769174	     -3.32351161	     -6.67673836	    -11.55955067	     10.88037925	     -2.49008797	    -11.76481518	      2.95689174	      2.15079714
      2.15000000	     -0.33212210	     -3.24886559	     -6.29424432	     -1.11776541	      1.02491420	     -0.15318055	      1.27923692	      5.45283775	     -3.37093396	    -11.85573883	     10.71421329	     -2.63535940	      1.96310284	     -3.34287237	     -6.65930530	    -11.64033274	     10.91503261	     -2.42649113	    -11.80465666	      2.94072347	      2.14176332
      2.16000000	     -0.33592651	     -3.21882135	     -6.27145047	     -1.11759651	      1.02487713	     -0.15244345	      1.28884663	      5.46627789	     -3.35850440	    -11.89233557	     10.72609988	     -2.64553124	      1.99596484	     -3.35914777	     -6.62430028	    -11.71002054	     10.91310643	     -2.40994701	    -11.86378765	      2.91924111	      2.16853776
      2.17000000	     -0.33577410	     -3.19018270	     -6.24576084	     -1.11744004	      1.02483547	     -0.15169663	      1.30302477	      5.48108359	     -3.35118868	    -11.94564997	     10.76097387	     -2.66237630	      2.03832167	     -3.37942310	     -6.59154790	    -11.80414783	     10.92337163	     -2.38726782	    -11.93447046	      2.89984734	      2.18981499
      2.18000000	     -0.35905996	     -3.16509440	     -6.20967593	     -1.11728837	      1.02472787	     -0.15094932	      1.35633192	      5.50175797	     -3.39404551	    -12.02607793	     10.86553680	     -2.72424328	      2.12986490	     -3.41136922	     -6.58628318	    -11.93952114	     10.99774902	     -2.29682877	    -11.98119106	      2.89165401	      2.18469371
      2.19000000	     -0.38896799	     -3.14124136	     -6.18401332	     -1.11716561	      1.02462470	     -0.15016312	      1.42021301	      5.52759126	     -3.40205754	    -12.10825226	     10.90229028	     -2.78093249	      2.23516453	     -3.44655931	     -6.56053183	    -12.08750298	     11.03805651	     -2.19990178	    -12.02877028	      2.87877621	      2.20971800
      2.20000000	     -0.42803449	     -3.11676804	     -6.16103093	     -1.11703686	      1.02450532	     -0.14934940	      1.48680508	      5.55629948	     -3.40898291	    -12.17558205	     10.93220759	     -2.84252738	      2.35895983	     -3.48336502	     -6.52626154	    -12.25213526	     11.08624979	     -2.09543237	    -12.06873251	      2.86149221	      2.25811183
      2.21000000	     -0.42546284	     -3.10477972	     -6.13917898	     -1.11691235	      1.02444474	     -0.14851884	      1.51627629	      5.59389748	     -3.41756843	    -12.26047890	     10.97384048	     -2.87282662	      2.44315738	     -3.53106103	     -6.50638588	    -12.42787927	     11.12412692	     -2.06125591	    -12.16813467	      2.85376793	      2.29137219
      2.22000000	     -0.46709603	     -3.09749314	     -6.10490471	     -1.11680614	      1.02430610	     -0.14768545	      1.59007215	      5.64447734	     -3.43242952	    -12.33684561	     10.99709658	     -2.94217973	      2.60369121	     -3.59164530	     -6.46138245	    -12.65308542	     11.20290152	     -1.96358085	    -12.22177552	      2.85711223	      2.33769586
